HIERARCHY
ROOT RootJoint
{
    OFFSET   0.000000   0.000000   0.000000
    CHANNELS 6 Xposition Yposition Zposition Xrotation Yrotation Zrotation
    JOINT pelvis_lowerback
    {
        OFFSET   0.000000   0.093605   0.000000
        CHANNELS 3 Xrotation Yrotation Zrotation
        JOINT lowerback_torso
        {
            OFFSET   0.000000   0.100000   0.000000
            CHANNELS 3 Xrotation Yrotation Zrotation
            JOINT torso_head
            {
                OFFSET   0.000000   0.282350   0.000000
                CHANNELS 3 Xrotation Yrotation Zrotation
                End Site
                {
                    OFFSET   0.000000   0.192650   0.000000
                }
            }
            JOINT rTorso_Clavicle
            {
                OFFSET  -0.001000   0.157500   0.000000
                CHANNELS 3 Xrotation Yrotation Zrotation
                JOINT rShoulder
                {
                    OFFSET  -0.117647   0.000000   0.000000
                    CHANNELS 3 Xrotation Yrotation Zrotation
                    JOINT rElbow
                    {
                        OFFSET  -0.245000   0.000000   0.000000
                        CHANNELS 3 Xrotation Yrotation Zrotation
                        JOINT rWrist
                        {
                            OFFSET  -0.240000   0.000000   0.000000
                            CHANNELS 3 Xrotation Yrotation Zrotation
                            End Site
                            {
                                OFFSET  -0.116353  -0.002500   0.000000
                            }
                        }
                    }
                }
            }
            JOINT lTorso_Clavicle
            {
                OFFSET   0.001000   0.157500   0.000000
                CHANNELS 3 Xrotation Yrotation Zrotation
                JOINT lShoulder
                {
                    OFFSET   0.117647   0.000000   0.000000
                    CHANNELS 3 Xrotation Yrotation Zrotation
                    JOINT lElbow
                    {
                        OFFSET   0.245000   0.000000   0.000000
                        CHANNELS 3 Xrotation Yrotation Zrotation
                        JOINT lWrist
                        {
                            OFFSET   0.240000   0.000000   0.000000
                            CHANNELS 3 Xrotation Yrotation Zrotation
                            End Site
                            {
                                OFFSET   0.116353  -0.002500   0.000000
                            }
                        }
                    }
                }
            }
        }
    }
    JOINT rHip
    {
        OFFSET  -0.100000  -0.051395   0.000000
        CHANNELS 3 Xrotation Yrotation Zrotation
        JOINT rKnee
        {
            OFFSET   0.000000  -0.410000   0.000000
            CHANNELS 3 Xrotation Yrotation Zrotation
            JOINT rAnkle
            {
                OFFSET   0.000000  -0.390000   0.000000
                CHANNELS 3 Xrotation Yrotation Zrotation
                JOINT rToeJoint
                {
                    OFFSET   0.000000  -0.050000   0.130000
                    CHANNELS 3 Xrotation Yrotation Zrotation
                    End Site
                    {
                        OFFSET  -0.010000   0.002000   0.060000
                    }
                }
            }
        }
    }
    JOINT lHip
    {
        OFFSET   0.100000  -0.051395   0.000000
        CHANNELS 3 Xrotation Yrotation Zrotation
        JOINT lKnee
        {
            OFFSET   0.000000  -0.410000   0.000000
            CHANNELS 3 Xrotation Yrotation Zrotation
            JOINT lAnkle
            {
                OFFSET   0.000000  -0.390000   0.000000
                CHANNELS 3 Xrotation Yrotation Zrotation
                JOINT lToeJoint
                {
                    OFFSET   0.000000  -0.050000   0.130000
                    CHANNELS 3 Xrotation Yrotation Zrotation
                    End Site
                    {
                        OFFSET   0.010000   0.002000   0.060000
                    }
                }
            }
        }
    }
}
MOTION
Frames: 11
Frame Time:   0.008333
 -2.332455   0.994800   4.171576 -10.134706 -15.504855  -3.995575   7.976949   3.444690  -2.016299   0.630671  -2.072105   0.328887   2.341492  -0.733560  -0.926374   2.459559   7.834898  -4.872621  -5.698378  11.852920  43.412464   0.006407  71.105154  -0.005534  -1.324895   1.474762  -4.229328   1.597728  -9.869276   2.457558 -13.555496 -11.377333 -43.832304  -0.000640 -66.639843  -0.001500  -4.235310  -5.765450   8.588883 -20.265263  -8.487102  -3.585441  42.286725  -0.003404   0.001594  11.902486  -1.291946   8.345884   1.607464  -0.000148   0.000115 -11.358232   8.657970   7.183805  34.433681  -0.005384  -0.006655  27.061101   2.401101  -4.739774  -1.749983  -0.000523   0.000232
 -2.332738   0.976552   4.175280 -10.478072 -15.464919  -4.206135   7.850020   3.103495  -1.906814   0.408487  -2.115251   0.221876   2.146807  -0.938781  -0.727214   2.355243   7.628680  -4.912177  -5.698452  11.791921  43.363271   0.016627  70.682865  -0.014693  -1.326994   1.587694  -4.161906   1.602707  -9.546449   2.397628 -13.341750 -11.192691 -44.071316   0.001031 -66.417494   0.000925  -4.144661  -5.893570   8.582058 -19.929337  -8.339719  -3.311086  42.769032  -0.002660   0.002409  10.276484  -1.701086   8.022980   1.824112   0.000553   0.000102 -11.195172   8.253353   7.392433  35.507947  -0.006815  -0.007484  24.688910   3.024543  -4.425150  -1.254981  -0.002956   0.001830
 -2.333025   0.957611   4.179013 -10.816156 -15.410657  -4.393268   7.715757   2.773971  -1.811682   0.184631  -2.160842   0.107461   1.958673  -1.136697  -0.536467   2.228685   7.419674  -4.979669  -5.717066  11.710435  43.278990   0.024847  70.266023  -0.021857  -1.338400   1.578282  -4.250598   1.613525  -9.216897   2.346603 -13.129957 -10.990220 -44.275087   0.002658 -66.181936   0.003114  -4.077239  -5.889276   8.661403 -19.566445  -8.170960  -3.081392  43.226217  -0.001905   0.003011   8.742935  -2.080092   7.708260   1.934912   0.000805   0.000091 -11.056240   7.870502   7.599132  36.580709  -0.007975  -0.007707  22.454281   3.596984  -4.106615  -0.918520  -0.003991   0.002597
 -2.333091   0.941723   4.182411 -11.186219 -15.572432  -4.037059   7.662475   2.542910  -2.197187   0.030107  -2.135148  -0.206682   1.757904  -1.321788  -0.373383   2.148556   7.250910  -4.806428  -5.718046  11.635994  43.296492   0.028536  69.845919  -0.025723  -1.348535   1.467355  -4.382648   1.672020  -8.865002   2.141557 -12.882695 -10.742390 -44.473324   0.003582 -65.904136   0.005314  -4.030090  -5.719974   8.812826 -19.166292  -7.886723  -3.328524  43.500552  -0.001762   0.002530   7.312039  -2.428037   7.402342   2.086396   0.000860  -0.000132 -10.782114   7.630293   7.045551  39.753024  -0.011764  -0.019089  18.885757   3.507860  -4.186888 -22.679578   0.015123   0.105862
 -2.333467   0.927053   4.185184 -11.423949 -15.580493  -3.800967   7.566675   2.276160  -2.403597  -0.120172  -2.142429  -0.488671   1.570334  -1.496599  -0.232419   2.088285   7.068192  -4.697375  -5.701559  11.560686  43.307928   0.029405  69.460036  -0.026734  -1.366612   1.346629  -4.456417   1.754177  -8.536876   1.945956 -12.632600 -10.518616 -44.701381   0.003703 -65.650376   0.006352  -4.001576  -5.498041   8.906893 -18.791267  -7.691833  -3.340803  43.751020  -0.001653   0.002529   5.972196  -2.746605   7.109015   2.210498   0.000866  -0.000076 -10.540069   7.456640   6.640844  41.689480  -0.011246  -0.019344  15.923211   3.719817  -4.082997 -39.113356   0.000487   0.109438
 -2.334086   0.913256   4.187389 -11.616609 -15.476699  -3.613014   7.506439   2.002661  -2.558519  -0.249640  -2.172069  -0.734098   1.397736  -1.660320  -0.096372   2.027839   6.885305  -4.628939  -5.685515  11.482554  43.300872   0.028600  69.100810  -0.025981  -1.385455   1.225766  -4.533742   1.830957  -8.240800   1.773755 -12.399864 -10.318426 -44.918396   0.003551 -65.416298   0.006766  -3.977436  -5.274296   8.959958 -18.412284  -7.535004  -3.245393  44.022490  -0.001572   0.002869   4.720318  -3.036180   6.828589   2.319592   0.000856   0.000088 -10.434730   7.273653   6.343993  43.204713  -0.009985  -0.016909  13.213207   3.979070  -3.934341 -53.228710  -0.007415   0.091636
 -2.334842   0.903549   4.188959 -12.080916 -15.481103  -2.953209   7.727390   1.795460  -3.194002  -0.206257  -2.148053  -1.166651   1.228852  -1.813042   0.018135   2.006390   6.765476  -4.343090  -5.659502  11.426972  43.396492   0.024932  68.742626  -0.023112  -1.403090   1.044835  -4.588924   1.925583  -7.959436   1.495418 -12.157920 -10.097210 -45.115676   0.002799 -65.148641   0.007203  -3.968173  -4.938001   9.047771 -17.783531  -7.284549  -3.573061  44.211776  -0.001705   0.002728   3.555059  -3.302596   6.557668   2.467779   0.000661   0.000188 -10.845166   7.213670   5.693860  46.090046  -0.011148  -0.015431   9.508450   3.991009  -4.222013 -50.460545   0.006419   0.076477
 -2.335632   0.894978   4.190510 -12.523792 -15.403453  -2.863262   7.904494   1.506466  -3.231800  -0.146830  -2.151355  -1.365421   0.987052  -1.974303   0.078740   1.673465   6.605536  -4.100526  -5.875606  11.179059  43.442700   0.042913  67.579869  -0.043585  -1.455207   1.317178  -4.184481   1.854829  -7.633875   1.052601 -11.772871  -9.764754 -45.431530   0.001514 -64.123142   0.012374  -3.837244  -5.207522   9.035937 -16.999403  -7.015243  -3.401539  45.009475  -0.001637   0.005271  -0.218716  -4.186254   5.707003  -2.174934  -0.025651   0.006761 -11.023395   6.872561   5.443211  48.486715  -0.011960  -0.017357   5.448183   4.345117  -3.737874 -46.959880   0.001506   0.049093
 -2.336497   0.886892   4.191780 -12.838152 -15.322127  -2.889825   8.029502   1.218485  -3.182313  -0.126345  -2.166488  -1.457429   0.745857  -2.128911   0.167344   1.327642   6.404981  -3.939334  -6.092114  10.887411  43.415599   0.056805  66.441413  -0.058638  -1.534551   1.305924  -4.058936   1.833064  -7.276651   0.652133 -11.363942  -9.403193 -45.710935  -0.000360 -63.103764   0.014712  -3.760564  -5.156502   9.050607 -16.308144  -6.733955  -3.117197  45.530930  -0.001135   0.006356  -3.664768  -4.816862   4.948286  -5.447444  -0.036904   0.000967 -11.151204   6.483537   5.291944  50.490990  -0.012492  -0.018596   1.438142   4.777601  -3.142304 -43.241504  -0.008300   0.026521
 -2.337448   0.879064   4.192744 -13.073620 -15.217620  -2.950706   8.146514   0.934758  -3.118412  -0.119222  -2.191662  -1.516487   0.519959  -2.274988   0.262593   0.992015   6.180156  -3.840084  -6.296215  10.585435  43.349509   0.064653  65.369503  -0.066557  -1.618629   1.201704  -4.088185   1.823724  -6.911377   0.311462 -10.967015  -9.044363 -45.948813  -0.001861 -62.137911   0.015573  -3.706686  -4.979779   9.090966 -15.726502  -6.472718  -2.806563  45.937746  -0.000672   0.006757  -6.857348  -5.318736   4.232564  -7.970610  -0.040250  -0.005498 -11.253933   6.097139   5.189486  52.221948  -0.012485  -0.018429  -2.438610   5.194081  -2.506738 -39.703881  -0.018353   0.011315
 -2.338490   0.871441   4.193425 -13.265085 -15.076571  -3.017363   8.272846   0.655703  -3.064395  -0.108396  -2.226582  -1.569976   0.312561  -2.412320   0.354468   0.673170   5.946084  -3.778820  -6.486045  10.285476  43.262676   0.067560  64.364580  -0.068919  -1.702427   1.064473  -4.194788   1.814492  -6.554954   0.018391 -10.594065  -8.699771 -46.152871  -0.002908 -61.231313   0.015708  -3.662023  -4.765057   9.158629 -15.227862  -6.230327  -2.500161  46.282176  -0.000273   0.006847  -9.832417  -5.732339   3.549011 -10.071379  -0.039750  -0.011043 -11.353362   5.724836   5.120757  53.765408  -0.012011  -0.017119  -6.096766   5.559949  -1.879920 -36.461243  -0.026368   0.002775
